REM DIRINDEX 1\2,1\3,1\4,1\5
REM DIRNAME folder01,folder02,folder03,folder04,folder05
TITLE ""
FILE "P1Q_t_0212-0221.mp3" MP3
  TRACK 01 AUDIO
    TITLE "3:cjc005_1537"
    INDEX 01 00:00:00
  TRACK 02 AUDIO
    TITLE "0:"
    INDEX 01 00:01:13
  TRACK 03 AUDIO
    TITLE "4:cjc005_1538"
    INDEX 01 00:01:44
  TRACK 04 AUDIO
    TITLE "0:"
    INDEX 01 00:02:59
  TRACK 05 AUDIO
    TITLE "5:cjc005_1539"
    INDEX 01 00:03:10
  TRACK 06 AUDIO
    TITLE "0:"
    INDEX 01 00:07:64
  TRACK 07 AUDIO
    TITLE "3:cjc005_1540"
    INDEX 01 00:08:42
  TRACK 08 AUDIO
    TITLE "0:"
    INDEX 01 00:09:49
  TRACK 09 AUDIO
    TITLE "4:cjc005_1541"
    INDEX 01 00:09:73
  TRACK 10 AUDIO
    TITLE "0:"
    INDEX 01 00:10:66
  TRACK 11 AUDIO
    TITLE "5:cjc005_1542"
    INDEX 01 00:11:15
  TRACK 12 AUDIO
    TITLE "0:"
    INDEX 01 00:15:15
  TRACK 13 AUDIO
    TITLE "3:cjc005_1543"
    INDEX 01 00:15:68
  TRACK 14 AUDIO
    TITLE "0:"
    INDEX 01 00:17:10
  TRACK 15 AUDIO
    TITLE "4:cjc005_1544"
    INDEX 01 00:17:43
  TRACK 16 AUDIO
    TITLE "0:"
    INDEX 01 00:18:56
  TRACK 17 AUDIO
    TITLE "5:cjc005_1545"
    INDEX 01 00:19:09
  TRACK 18 AUDIO
    TITLE "0:"
    INDEX 01 00:23:48
  TRACK 19 AUDIO
    TITLE "3:cjc005_1546"
    INDEX 01 00:24:27
  TRACK 20 AUDIO
    TITLE "0:"
    INDEX 01 00:25:39
  TRACK 21 AUDIO
    TITLE "4:cjc005_1547"
    INDEX 01 00:25:68
  TRACK 22 AUDIO
    TITLE "0:"
    INDEX 01 00:26:69
  TRACK 23 AUDIO
    TITLE "5:cjc005_1548"
    INDEX 01 00:27:20
  TRACK 24 AUDIO
    TITLE "0:"
    INDEX 01 00:31:18
  TRACK 25 AUDIO
    TITLE "3:cjc005_1549"
    INDEX 01 00:32:00
  TRACK 26 AUDIO
    TITLE "0:"
    INDEX 01 00:33:21
  TRACK 27 AUDIO
    TITLE "4:cjc005_1550"
    INDEX 01 00:33:40
  TRACK 28 AUDIO
    TITLE "0:"
    INDEX 01 00:34:43
  TRACK 29 AUDIO
    TITLE "5:cjc005_1551"
    INDEX 01 00:34:71
  TRACK 30 AUDIO
    TITLE "0:"
    INDEX 01 00:38:53
  TRACK 31 AUDIO
    TITLE "3:cjc005_1552"
    INDEX 01 00:39:29
  TRACK 32 AUDIO
    TITLE "0:"
    INDEX 01 00:40:52
  TRACK 33 AUDIO
    TITLE "4:cjc005_1553"
    INDEX 01 00:40:72
  TRACK 34 AUDIO
    TITLE "0:"
    INDEX 01 00:42:08
  TRACK 35 AUDIO
    TITLE "5:cjc005_1554"
    INDEX 01 00:42:33
  TRACK 36 AUDIO
    TITLE "0:"
    INDEX 01 00:47:13
  TRACK 37 AUDIO
    TITLE "3:cjc005_1555"
    INDEX 01 00:47:58
  TRACK 38 AUDIO
    TITLE "0:"
    INDEX 01 00:48:63
  TRACK 39 AUDIO
    TITLE "4:cjc005_1556"
    INDEX 01 00:49:12
  TRACK 40 AUDIO
    TITLE "0:"
    INDEX 01 00:50:17
  TRACK 41 AUDIO
    TITLE "5:cjc005_1557"
    INDEX 01 00:50:44
  TRACK 42 AUDIO
    TITLE "0:"
    INDEX 01 00:55:18
  TRACK 43 AUDIO
    TITLE "3:cjc005_1558"
    INDEX 01 00:56:00
  TRACK 44 AUDIO
    TITLE "0:"
    INDEX 01 00:57:17
  TRACK 45 AUDIO
    TITLE "4:cjc005_1559"
    INDEX 01 00:57:45
  TRACK 46 AUDIO
    TITLE "0:"
    INDEX 01 00:58:60
  TRACK 47 AUDIO
    TITLE "5:cjc005_1560"
    INDEX 01 00:59:10
  TRACK 48 AUDIO
    TITLE "0:"
    INDEX 01 01:04:00
  TRACK 49 AUDIO
    TITLE "3:cjc005_1561"
    INDEX 01 01:04:48
  TRACK 50 AUDIO
    TITLE "0:"
    INDEX 01 01:05:64
  TRACK 51 AUDIO
    TITLE "4:cjc005_1562"
    INDEX 01 01:06:14
  TRACK 52 AUDIO
    TITLE "0:"
    INDEX 01 01:07:21
  TRACK 53 AUDIO
    TITLE "5:cjc005_1563"
    INDEX 01 01:07:43
  TRACK 54 AUDIO
    TITLE "0:"
    INDEX 01 01:11:21
  TRACK 55 AUDIO
    TITLE "3:cjc005_1564"
    INDEX 01 01:11:74
  TRACK 56 AUDIO
    TITLE "0:"
    INDEX 01 01:13:14
  TRACK 57 AUDIO
    TITLE "4:cjc005_1565"
    INDEX 01 01:13:40
  TRACK 58 AUDIO
    TITLE "0:"
    INDEX 01 01:14:47
  TRACK 59 AUDIO
    TITLE "5:cjc005_1566"
    INDEX 01 01:14:72
  TRACK 60 AUDIO
    TITLE "0:"
    INDEX 01 01:18:53
